<svg xmlns="http://www.w3.org/2000/svg" viewBox="0 0 30 16"><defs><style>.a{fill:#b22234;}.b{fill:#fff;}.c{fill:#192f5d;}</style></defs><title>us</title><path class="a" d="M0,0H30V1.231H0ZM0,2.463H30V3.694H0ZM0,4.922H30V6.156H0ZM0,7.384H30V8.616H0ZM0,9.847H30v1.231H0Zm0,2.459H30v1.231H0Zm0,2.463H30V16H0Z"/><path class="b" d="M0,1.231H30V2.463H0ZM0,3.694H30V4.922H0ZM0,6.153H30V7.384H0ZM0,8.616H30V9.847H0Zm0,2.462H30v1.231H0Zm0,2.46H30v1.231H0Z"/><path class="c" d="M0,0H12.159V8.616H0Z"/><path class="b" d="M1.013.369l.112.34h.356l-.287.21.109.344-.29-.213-.288.209L.834.919.544.709H.906Zm2.028,0,.109.34h.359l-.29.21.109.344L3.041,1.05l-.291.209.109-.34L2.572.709h.356Zm2.025,0,.112.34h.353l-.287.21.109.344L5.062,1.05l-.287.209.109-.34-.29-.21h.359Zm2.028,0L7.2.709h.359l-.29.21.112.344-.29-.213L6.8,1.259l.113-.34L6.625.709h.356Zm2.025,0,.112.34h.356L9.3.919l.109.344-.29-.213-.288.209.11-.34L8.653.709h.356Zm2.028,0,.109.34h.36l-.291.21.112.344-.29-.213-.291.209.113-.34-.291-.21h.36Zm-9.119.862.11.341H2.5l-.291.209.106.341-.281-.209-.29.209.1-.341-.282-.209h.357Zm2.025,0,.113.341h.356l-.291.209.113.341-.291-.209-.29.209.112-.341-.291-.209h.36Zm2.028,0,.11.341H6.55l-.291.209.11.341-.288-.209-.29.209L5.9,1.781l-.287-.209h.356Zm2.025,0,.113.341h.356l-.291.209.113.341-.291-.209-.287.209.109-.341-.29-.209H8Zm2.028,0,.11.341H10.6l-.291.209.11.341-.288-.209-.29.209.109-.341-.287-.209h.356Zm-9.121.86.112.347h.356l-.287.209.109.34-.29-.212-.288.212.109-.343-.29-.21H.906Zm2.028,0,.109.343h.359l-.29.21.109.34-.287-.212-.291.212.109-.343-.287-.21h.356Zm2.025,0,.112.343h.353l-.287.21.109.34-.291-.212-.287.212.109-.343-.29-.21h.359Zm2.028,0,.109.343h.359l-.29.21.112.34-.29-.212L6.8,2.984l.113-.343-.291-.21h.356Zm2.025,0,.112.343h.356l-.287.21.109.34-.29-.212-.288.212.11-.343-.288-.21h.356Zm2.028,0,.109.343h.36l-.291.21.112.34-.29-.212-.291.212.113-.343-.291-.21h.36Zm-9.119.862.11.341H2.5L2.206,3.5l.11.344-.288-.213-.29.21L1.847,3.5l-.288-.209h.357Zm2.025,0,.113.341h.356L4.231,3.5l.113.344-.291-.213-.29.21L3.875,3.5l-.291-.209h.36Zm2.028,0,.11.341H6.55L6.259,3.5l.11.344-.288-.213-.29.21L5.9,3.5l-.287-.209h.356Zm2.025,0,.113.341h.356L8.288,3.5l.109.344-.291-.213-.287.21L7.928,3.5l-.29-.209H8Zm2.028,0,.11.341H10.6l-.29.209.109.344-.288-.213-.29.21L9.953,3.5l-.287-.209h.356Zm-9.121.863.112.34h.356l-.287.21.109.343L1.013,4.5l-.288.209.109-.34-.29-.21H.906Zm2.028,0,.109.34h.359l-.29.21.109.34L3.041,4.5l-.291.209.109-.34-.287-.21h.356Zm2.025,0,.112.34h.353l-.287.21.109.343L5.062,4.5l-.287.209.109-.34-.29-.21h.359Zm2.028,0,.109.34h.359l-.29.21.112.343L7.094,4.5,6.8,4.706l.113-.34-.291-.21h.356Zm2.025,0,.112.34h.356l-.287.21.109.343L9.119,4.5l-.288.209.11-.34-.288-.21h.356Zm2.028,0,.109.34h.36l-.291.21.112.343-.29-.212-.291.209.113-.34-.291-.21h.36Zm-9.119.862.11.341H2.5l-.291.209.11.341-.288-.213-.29.213.109-.344-.288-.209h.357Zm2.025,0,.113.341h.356l-.291.209.113.341-.291-.213-.29.213.112-.344-.291-.209h.36Zm2.028,0,.11.341H6.55l-.291.209.11.341-.288-.213-.29.213L5.9,5.225l-.287-.209h.356Zm2.025,0,.113.341h.356l-.287.209.109.341-.291-.213-.287.213.109-.344-.29-.209H8Zm2.028,0,.11.341H10.6l-.29.209.109.341-.288-.213-.29.213.109-.344-.287-.209h.356Zm-9.121.859.112.344h.356l-.287.21.109.337-.29-.209-.288.209.109-.34-.29-.21H.906Zm2.028,0,.109.344h.359l-.29.21.112.337-.29-.209-.291.209.112-.34-.29-.21h.356Zm2.025,0,.112.344h.353l-.287.21.109.337-.291-.209-.287.209.109-.34-.29-.21h.359Zm2.028,0,.109.344h.359l-.29.21.112.337-.29-.209L6.8,6.428l.113-.34-.291-.21h.356Zm2.025,0,.112.344h.356l-.287.21.109.337-.29-.209-.288.209.11-.34-.288-.21h.356Zm2.028,0,.109.344h.36l-.291.21.112.337-.29-.209-.291.209.113-.34-.291-.21h.36ZM2.028,6.4l.11.341H2.5l-.291.209.11.344-.288-.213-.29.21.109-.341-.288-.209h.357Zm2.025,0,.113.341h.356l-.291.209.113.344-.291-.213-.29.21.112-.341-.291-.209h.36Zm2.028,0,.11.341H6.55l-.291.209.11.344-.288-.213-.29.21L5.9,6.95l-.287-.209h.356Zm2.025,0,.113.341h.356l-.287.209.109.344-.291-.213-.287.21.109-.341-.29-.209H8Zm2.028,0,.11.341H10.6l-.29.209.109.344-.288-.213-.29.21.109-.341-.287-.209h.356Zm-9.121.862.112.341h.356l-.287.209.109.341-.29-.209-.288.209.109-.344L.544,7.6H.906Zm2.028,0L3.15,7.6h.359l-.29.209.112.341-.29-.209-.291.209.112-.344L2.572,7.6h.356Zm2.025,0,.112.341h.353l-.281.209.109.341-.29-.209-.288.209.11-.344L4.6,7.6h.359Zm2.028,0L7.2,7.6h.359l-.29.209.112.341-.29-.209L6.8,8.153l.113-.344L6.625,7.6h.356Zm2.025,0,.112.341h.356L9.3,7.812l.109.341-.29-.209-.288.209.11-.344L8.653,7.6h.356Zm2.028,0,.109.341h.36l-.291.209.112.341-.29-.209-.291.209.113-.344L10.678,7.6h.36Z"/></svg>